<?xml version="1.0" encoding="UTF-8" standalone="no"?>

<svg
   width="800"
   height="800"
   viewBox="0 0 800 800"
   xmlns="http://www.w3.org/2000/svg"
   xmlns:svg="http://www.w3.org/2000/svg">

  <g transform="matrix(1.3333333,0,0,-1.3333333,0,1066.6667)">
    <g transform="matrix(1.1016098,0,0,1.1016098,300,333.86021)">
      <path
         d="m 0,0 c -82.958,0 -133.896,24.011 -133.896,41.225 v 44.972 c 7.65,-5.635 17.824,-10.704 30.404,-15.097 C -75.719,61.401 -38.965,56.061 0,56.061 c 38.965,0 75.719,5.34 103.492,15.039 12.58,4.393 22.754,9.462 30.404,15.097 V 41.225 C 133.896,24.011 82.958,0 0,0 m 0,301.631 c 82.958,0 133.896,-24.01 133.896,-41.224 0,-17.214 -50.938,-41.225 -133.896,-41.225 -82.958,0 -133.896,24.011 -133.896,41.225 0,17.214 50.938,41.224 133.896,41.224 M 133.896,187.346 c 0,-17.214 -50.938,-41.225 -133.896,-41.225 -82.958,0 -133.896,24.011 -133.896,41.225 v 44.973 c 7.65,-5.636 17.824,-10.705 30.404,-15.098 27.773,-9.698 64.527,-15.039 103.492,-15.039 38.965,0 75.719,5.341 103.492,15.039 12.58,4.393 22.754,9.462 30.404,15.098 z m 0,-73.061 C 133.896,97.071 82.958,73.061 0,73.061 c -82.958,0 -133.896,24.01 -133.896,41.224 v 44.973 c 7.65,-5.636 17.824,-10.704 30.404,-15.098 27.773,-9.698 64.527,-15.039 103.492,-15.039 38.965,0 75.719,5.341 103.492,15.039 12.58,4.394 22.754,9.462 30.404,15.098 z M 103.492,303.592 C 75.719,313.291 38.965,318.631 0,318.631 c -38.965,0 -75.719,-5.34 -103.492,-15.039 -31.012,-10.829 -47.404,-25.763 -47.404,-43.185 v -73.061 -73.061 -73.06 c 0,-17.423 16.392,-32.357 47.404,-43.186 C -75.719,-11.659 -38.965,-17 0,-17 c 38.965,0 75.72,5.341 103.492,15.039 31.012,10.829 47.404,25.763 47.404,43.186 v 73.06 73.061 73.061 c 0,17.422 -16.392,32.356 -47.404,43.185"
         style="fill:#ffffff;fill-opacity:1;fill-rule:nonzero;stroke:none" />
    </g>
  </g>
</svg>
